<mxfile host="drawio-plugin" modified="2021-08-06T18:23:02.878Z" agent="5.0 (Macintosh; Intel Mac OS X 11_5_1) AppleWebKit/537.36 (KHTML, like Gecko) Chrome/89.0.4389.114 Safari/537.36" etag="ZyXufbH0YQOeYhEV3xrI" version="14.7.4" type="embed" pages="3"><diagram id="ItM8ExHtsjI9LCw9ztyJ" name="Data flow"><mxGraphModel dx="1192" dy="1029" grid="1" gridSize="10" guides="1" tooltips="1" connect="1" arrows="1" fold="1" page="1" pageScale="1" pageWidth="1169" pageHeight="827" background="#F1FAEE" math="0" shadow="0"><root><mxCell id="0"/><mxCell id="1" parent="0"/><mxCell id="KZyy5SDwcHlstlurtTXb-15" value="" style="rounded=0;whiteSpace=wrap;html=1;fillColor=#A8DADC;strokeColor=#457B9D;fontColor=#1D3557;" parent="1" vertex="1"><mxGeometry x="195" y="349" width="780" height="130" as="geometry"/></mxCell><mxCell id="KZyy5SDwcHlstlurtTXb-3" value="" style="edgeStyle=orthogonalEdgeStyle;rounded=0;orthogonalLoop=1;jettySize=auto;html=1;labelBackgroundColor=#F1FAEE;strokeColor=#457B9D;fontColor=#1D3557;" parent="1" source="KZyy5SDwcHlstlurtTXb-1" target="KZyy5SDwcHlstlurtTXb-2" edge="1"><mxGeometry relative="1" as="geometry"/></mxCell><mxCell id="KZyy5SDwcHlstlurtTXb-1" value="URL" style="rounded=0;whiteSpace=wrap;html=1;fillColor=#A8DADC;strokeColor=#457B9D;fontColor=#1D3557;" parent="1" vertex="1"><mxGeometry x="235" y="389" width="120" height="60" as="geometry"/></mxCell><mxCell id="KZyy5SDwcHlstlurtTXb-5" value="" style="edgeStyle=orthogonalEdgeStyle;rounded=0;orthogonalLoop=1;jettySize=auto;html=1;labelBackgroundColor=#F1FAEE;strokeColor=#457B9D;fontColor=#1D3557;" parent="1" source="KZyy5SDwcHlstlurtTXb-2" target="KZyy5SDwcHlstlurtTXb-4" edge="1"><mxGeometry relative="1" as="geometry"/></mxCell><mxCell id="KZyy5SDwcHlstlurtTXb-2" value="HTML" style="rounded=0;whiteSpace=wrap;html=1;fillColor=#A8DADC;strokeColor=#457B9D;fontColor=#1D3557;" parent="1" vertex="1"><mxGeometry x="435" y="389" width="120" height="60" as="geometry"/></mxCell><mxCell id="KZyy5SDwcHlstlurtTXb-7" value="" style="edgeStyle=orthogonalEdgeStyle;rounded=0;orthogonalLoop=1;jettySize=auto;html=1;labelBackgroundColor=#F1FAEE;strokeColor=#457B9D;fontColor=#1D3557;" parent="1" source="KZyy5SDwcHlstlurtTXb-4" target="KZyy5SDwcHlstlurtTXb-6" edge="1"><mxGeometry relative="1" as="geometry"/></mxCell><mxCell id="KZyy5SDwcHlstlurtTXb-4" value="Model" style="rounded=0;whiteSpace=wrap;html=1;fillColor=#A8DADC;strokeColor=#457B9D;fontColor=#1D3557;" parent="1" vertex="1"><mxGeometry x="635" y="389" width="120" height="60" as="geometry"/></mxCell><mxCell id="KZyy5SDwcHlstlurtTXb-6" value="CSV" style="rounded=0;whiteSpace=wrap;html=1;fillColor=#A8DADC;strokeColor=#457B9D;fontColor=#1D3557;" parent="1" vertex="1"><mxGeometry x="835" y="389" width="120" height="60" as="geometry"/></mxCell><mxCell id="KZyy5SDwcHlstlurtTXb-16" value="&lt;b&gt;Data Flow&lt;/b&gt;" style="text;html=1;strokeColor=none;fillColor=none;align=center;verticalAlign=middle;whiteSpace=wrap;rounded=0;fontColor=#1D3557;" parent="1" vertex="1"><mxGeometry x="540" y="359" width="90" height="20" as="geometry"/></mxCell></root></mxGraphModel></diagram><diagram id="1xFxj7fxcJsglBxOqqqY" name="Components"><mxGraphModel dx="1192" dy="1029" grid="1" gridSize="10" guides="1" tooltips="1" connect="1" arrows="1" fold="1" page="1" pageScale="1" pageWidth="1100" pageHeight="850" background="#F1FAEE" math="0" shadow="0"><root><mxCell id="lFOafmWZkvHmW1nOxrVm-0"/><mxCell id="lFOafmWZkvHmW1nOxrVm-1" parent="lFOafmWZkvHmW1nOxrVm-0"/><mxCell id="XRx_T0rIM4_tfgkqi-a5-0" value="" style="rounded=0;whiteSpace=wrap;html=1;fillColor=#A8DADC;strokeColor=#457B9D;fontColor=#1D3557;sketch=1;" parent="lFOafmWZkvHmW1nOxrVm-1" vertex="1"><mxGeometry x="125" y="230" width="850" height="280" as="geometry"/></mxCell><mxCell id="XRx_T0rIM4_tfgkqi-a5-1" value="&lt;b&gt;Adapters&lt;/b&gt;" style="rounded=0;whiteSpace=wrap;html=1;fillColor=#A8DADC;strokeColor=#457B9D;fontColor=#1D3557;sketch=1;" parent="lFOafmWZkvHmW1nOxrVm-1" vertex="1"><mxGeometry x="125" y="520" width="850" height="100" as="geometry"/></mxCell><mxCell id="XRx_T0rIM4_tfgkqi-a5-2" value="" style="edgeStyle=orthogonalEdgeStyle;rounded=0;orthogonalLoop=1;jettySize=auto;html=1;strokeColor=#457B9D;fontColor=#1D3557;labelBackgroundColor=#F1FAEE;sketch=1;" parent="lFOafmWZkvHmW1nOxrVm-1" source="XRx_T0rIM4_tfgkqi-a5-4" target="XRx_T0rIM4_tfgkqi-a5-7" edge="1"><mxGeometry relative="1" as="geometry"/></mxCell><mxCell id="XRx_T0rIM4_tfgkqi-a5-3" value="HTML" style="edgeLabel;html=1;align=center;verticalAlign=middle;resizable=0;points=[];fontColor=#1D3557;labelBackgroundColor=#F1FAEE;sketch=1;" parent="XRx_T0rIM4_tfgkqi-a5-2" vertex="1" connectable="0"><mxGeometry x="-0.0571" y="1" relative="1" as="geometry"><mxPoint as="offset"/></mxGeometry></mxCell><mxCell id="XRx_T0rIM4_tfgkqi-a5-4" value="PageLoader" style="rounded=0;whiteSpace=wrap;html=1;strokeColor=#457B9D;fontColor=#1D3557;sketch=1;fillColor=#FFFFFF;" parent="lFOafmWZkvHmW1nOxrVm-1" vertex="1"><mxGeometry x="325" y="300" width="120" height="160" as="geometry"/></mxCell><mxCell id="XRx_T0rIM4_tfgkqi-a5-5" value="" style="edgeStyle=orthogonalEdgeStyle;rounded=0;orthogonalLoop=1;jettySize=auto;html=1;strokeColor=#457B9D;fontColor=#1D3557;labelBackgroundColor=#F1FAEE;sketch=1;" parent="lFOafmWZkvHmW1nOxrVm-1" source="XRx_T0rIM4_tfgkqi-a5-7" target="XRx_T0rIM4_tfgkqi-a5-10" edge="1"><mxGeometry relative="1" as="geometry"/></mxCell><mxCell id="XRx_T0rIM4_tfgkqi-a5-6" value="Object" style="edgeLabel;html=1;align=center;verticalAlign=middle;resizable=0;points=[];fontColor=#1D3557;labelBackgroundColor=#F1FAEE;sketch=1;" parent="XRx_T0rIM4_tfgkqi-a5-5" vertex="1" connectable="0"><mxGeometry x="0.15" y="1" relative="1" as="geometry"><mxPoint as="offset"/></mxGeometry></mxCell><mxCell id="XRx_T0rIM4_tfgkqi-a5-7" value="ModelGeneratorFacade" style="rounded=0;whiteSpace=wrap;html=1;strokeColor=#457B9D;fontColor=#1D3557;sketch=1;fillColor=#FFFFFF;" parent="lFOafmWZkvHmW1nOxrVm-1" vertex="1"><mxGeometry x="515" y="300" width="240" height="160" as="geometry"/></mxCell><mxCell id="XRx_T0rIM4_tfgkqi-a5-8" value="" style="edgeStyle=orthogonalEdgeStyle;rounded=0;orthogonalLoop=1;jettySize=auto;html=1;strokeColor=#457B9D;fontColor=#1D3557;labelBackgroundColor=#F1FAEE;sketch=1;" parent="lFOafmWZkvHmW1nOxrVm-1" source="XRx_T0rIM4_tfgkqi-a5-10" target="XRx_T0rIM4_tfgkqi-a5-21" edge="1"><mxGeometry relative="1" as="geometry"/></mxCell><mxCell id="XRx_T0rIM4_tfgkqi-a5-9" value="Save" style="edgeLabel;html=1;align=center;verticalAlign=middle;resizable=0;points=[];fontColor=#1D3557;labelBackgroundColor=#F1FAEE;sketch=1;" parent="XRx_T0rIM4_tfgkqi-a5-8" vertex="1" connectable="0"><mxGeometry x="-0.1692" relative="1" as="geometry"><mxPoint as="offset"/></mxGeometry></mxCell><mxCell id="XRx_T0rIM4_tfgkqi-a5-10" value="ModelPrinter" style="rounded=0;whiteSpace=wrap;html=1;strokeColor=#457B9D;fontColor=#1D3557;sketch=1;fillColor=#FFFFFF;" parent="lFOafmWZkvHmW1nOxrVm-1" vertex="1"><mxGeometry x="835" y="350" width="120" height="60" as="geometry"/></mxCell><mxCell id="XRx_T0rIM4_tfgkqi-a5-11" value="PageCache" style="rounded=0;whiteSpace=wrap;html=1;strokeColor=#457B9D;fontColor=#1D3557;sketch=1;fillColor=#FFFFFF;" parent="lFOafmWZkvHmW1nOxrVm-1" vertex="1"><mxGeometry x="340" y="440" width="90" height="40" as="geometry"/></mxCell><mxCell id="XRx_T0rIM4_tfgkqi-a5-12" value="WebsiteAwareModelGenerator" style="rounded=0;whiteSpace=wrap;html=1;strokeColor=#457B9D;fontColor=#1D3557;sketch=1;fillStyle=zigzag;fillColor=#FFFFFF;" parent="lFOafmWZkvHmW1nOxrVm-1" vertex="1"><mxGeometry x="545" y="260" width="180" height="60" as="geometry"/></mxCell><mxCell id="XRx_T0rIM4_tfgkqi-a5-13" value="" style="rounded=0;whiteSpace=wrap;html=1;strokeColor=#457B9D;fontColor=#1D3557;sketch=1;fillStyle=zigzag;fillColor=#FFFFFF;" parent="lFOafmWZkvHmW1nOxrVm-1" vertex="1"><mxGeometry x="555" y="270" width="180" height="60" as="geometry"/></mxCell><mxCell id="XRx_T0rIM4_tfgkqi-a5-14" value="WebsiteAwareModelGenerator" style="rounded=0;whiteSpace=wrap;html=1;strokeColor=#457B9D;fontColor=#1D3557;sketch=1;fillStyle=zigzag;fillColor=#FFFFFF;" parent="lFOafmWZkvHmW1nOxrVm-1" vertex="1"><mxGeometry x="565" y="280" width="180" height="60" as="geometry"/></mxCell><mxCell id="XRx_T0rIM4_tfgkqi-a5-15" value="URLListLoader" style="rounded=0;whiteSpace=wrap;html=1;strokeColor=#457B9D;fontColor=#1D3557;sketch=1;fillColor=#FFFFFF;" parent="lFOafmWZkvHmW1nOxrVm-1" vertex="1"><mxGeometry x="145" y="540" width="120" height="60" as="geometry"/></mxCell><mxCell id="XRx_T0rIM4_tfgkqi-a5-16" style="edgeStyle=orthogonalEdgeStyle;rounded=0;orthogonalLoop=1;jettySize=auto;html=1;exitX=1;exitY=0.5;exitDx=0;exitDy=0;entryX=0;entryY=0.5;entryDx=0;entryDy=0;strokeColor=#457B9D;fontColor=#1D3557;labelBackgroundColor=#F1FAEE;sketch=1;" parent="lFOafmWZkvHmW1nOxrVm-1" source="XRx_T0rIM4_tfgkqi-a5-20" target="XRx_T0rIM4_tfgkqi-a5-4" edge="1"><mxGeometry relative="1" as="geometry"/></mxCell><mxCell id="XRx_T0rIM4_tfgkqi-a5-17" value="URL" style="edgeLabel;html=1;align=center;verticalAlign=middle;resizable=0;points=[];fontColor=#1D3557;labelBackgroundColor=#F1FAEE;sketch=1;" parent="XRx_T0rIM4_tfgkqi-a5-16" vertex="1" connectable="0"><mxGeometry x="-0.1333" y="-2" relative="1" as="geometry"><mxPoint as="offset"/></mxGeometry></mxCell><mxCell id="XRx_T0rIM4_tfgkqi-a5-18" style="edgeStyle=orthogonalEdgeStyle;rounded=0;orthogonalLoop=1;jettySize=auto;html=1;exitX=0.5;exitY=1;exitDx=0;exitDy=0;strokeColor=#457B9D;fontColor=#1D3557;labelBackgroundColor=#F1FAEE;sketch=1;" parent="lFOafmWZkvHmW1nOxrVm-1" source="XRx_T0rIM4_tfgkqi-a5-20" target="XRx_T0rIM4_tfgkqi-a5-15" edge="1"><mxGeometry relative="1" as="geometry"/></mxCell><mxCell id="XRx_T0rIM4_tfgkqi-a5-19" value="Get List&amp;lt;URL&amp;gt;" style="edgeLabel;html=1;align=center;verticalAlign=middle;resizable=0;points=[];fontColor=#1D3557;labelBackgroundColor=#F1FAEE;sketch=1;" parent="XRx_T0rIM4_tfgkqi-a5-18" vertex="1" connectable="0"><mxGeometry x="-0.02" y="1" relative="1" as="geometry"><mxPoint as="offset"/></mxGeometry></mxCell><mxCell id="XRx_T0rIM4_tfgkqi-a5-20" value="DatasetGenerator" style="rounded=0;whiteSpace=wrap;html=1;strokeColor=#457B9D;fontColor=#1D3557;sketch=1;fillColor=#FFFFFF;" parent="lFOafmWZkvHmW1nOxrVm-1" vertex="1"><mxGeometry x="145" y="350" width="120" height="60" as="geometry"/></mxCell><mxCell id="XRx_T0rIM4_tfgkqi-a5-21" value="CSVModelPrinter" style="rounded=0;whiteSpace=wrap;html=1;strokeColor=#457B9D;fontColor=#1D3557;sketch=1;fillColor=#FFFFFF;" parent="lFOafmWZkvHmW1nOxrVm-1" vertex="1"><mxGeometry x="835" y="540" width="120" height="60" as="geometry"/></mxCell><mxCell id="XRx_T0rIM4_tfgkqi-a5-22" value="&lt;b&gt;Core&lt;/b&gt;" style="text;html=1;strokeColor=none;fillColor=none;align=center;verticalAlign=middle;whiteSpace=wrap;rounded=0;fontColor=#1D3557;sketch=1;" parent="lFOafmWZkvHmW1nOxrVm-1" vertex="1"><mxGeometry x="185" y="260" width="40" height="20" as="geometry"/></mxCell></root></mxGraphModel></diagram><diagram id="iQM5KTMf4o7ozs55O0zh" name="Infrastructure"><mxGraphModel dx="1192" dy="1000" grid="1" gridSize="10" guides="1" tooltips="1" connect="1" arrows="1" fold="1" page="1" pageScale="1" pageWidth="1100" pageHeight="850" background="#F1FAEE" math="0" shadow="0"><root><mxCell id="KqwYzvj2WCBJ5h1-yj0H-0"/><mxCell id="KqwYzvj2WCBJ5h1-yj0H-1" parent="KqwYzvj2WCBJ5h1-yj0H-0"/><mxCell id="KqwYzvj2WCBJ5h1-yj0H-4" style="edgeStyle=orthogonalEdgeStyle;orthogonalLoop=1;jettySize=auto;html=1;exitX=0.5;exitY=1;exitDx=0;exitDy=0;entryX=0.5;entryY=0;entryDx=0;entryDy=0;entryPerimeter=0;strokeColor=#457B9D;fontColor=#1D3557;labelBackgroundColor=#F1FAEE;sketch=1;" edge="1" parent="KqwYzvj2WCBJ5h1-yj0H-1" source="KqwYzvj2WCBJ5h1-yj0H-2" target="KqwYzvj2WCBJ5h1-yj0H-3"><mxGeometry relative="1" as="geometry"/></mxCell><mxCell id="KqwYzvj2WCBJ5h1-yj0H-2" value="Java Application" style="whiteSpace=wrap;html=1;aspect=fixed;fillColor=#A8DADC;strokeColor=#457B9D;fontColor=#1D3557;sketch=1;" vertex="1" parent="KqwYzvj2WCBJ5h1-yj0H-1"><mxGeometry x="480" y="360" width="80" height="80" as="geometry"/></mxCell><mxCell id="KqwYzvj2WCBJ5h1-yj0H-3" value="MongoDB" style="shape=cylinder3;whiteSpace=wrap;html=1;boundedLbl=1;backgroundOutline=1;size=15;fillColor=#A8DADC;strokeColor=#457B9D;fontColor=#1D3557;sketch=1;" vertex="1" parent="KqwYzvj2WCBJ5h1-yj0H-1"><mxGeometry x="490" y="490" width="60" height="80" as="geometry"/></mxCell></root></mxGraphModel></diagram></mxfile>